<svg width="71" height="26" viewBox="0 0 71 26" fill="none" xmlns="http://www.w3.org/2000/svg">
<path d="M1.4375 1.75H14.2188L13.3125 3.84375C10.0625 4.17708 7.41667 5.75 5.375 8.5625C3.52083 11.1042 2.59375 13.9271 2.59375 17.0312C2.59375 18.8438 3.07292 20.3438 4.03125 21.5312C4.96875 22.7188 6.16667 23.3125 7.625 23.3125C8.5625 23.3125 9.55208 22.9688 10.5938 22.2812C11.6354 21.6146 12.5938 20.7083 13.4688 19.5625C14.3646 18.3958 15.0729 17.1146 15.5938 15.7188C16.1562 14.2396 16.4375 12.7708 16.4375 11.3125C16.4375 9.8125 16.125 8.69792 15.5 7.96875C14.8958 7.21875 13.875 6.73958 12.4375 6.53125L13.2812 4.3125C15.1146 4.5 16.5625 5.1875 17.625 6.375C18.6667 7.52083 19.1875 9.02083 19.1875 10.875C19.1875 12.5417 18.9062 14.25 18.3438 16C17.7812 17.75 16.9896 19.3333 15.9688 20.75C14.9062 22.25 13.6875 23.4167 12.3125 24.25C10.8125 25.1667 9.21875 25.625 7.53125 25.625C5.34375 25.625 3.52083 24.8125 2.0625 23.1875C0.6875 21.625 0 19.7917 0 17.6875C0 14.8333 0.583333 12.2604 1.75 9.96875C3.04167 7.44792 4.92708 5.51042 7.40625 4.15625H0.625L1.4375 1.75ZM30.4062 7.40625L29.5625 9.09375C26.0417 9.51042 23.4062 10.8229 21.6562 13.0312C20.2604 14.8021 19.5625 16.8646 19.5625 19.2188C19.5625 20.4062 20.0938 21.4062 21.1562 22.2188C22.0729 22.9271 23.0521 23.2812 24.0938 23.2812C26.2812 23.2812 27.9688 22.5 29.1562 20.9375C30.1771 19.6042 30.6875 17.9479 30.6875 15.9688C30.6875 14.6771 30.4583 13.7708 30 13.25C29.5208 12.7083 28.6042 12.3333 27.25 12.125L27.7188 9.75C29.5938 9.9375 31.0208 10.5417 32 11.5625C33.0208 12.6042 33.5312 14.0729 33.5312 15.9688C33.5312 18.9479 32.5729 21.3333 30.6562 23.125C28.8646 24.7917 26.6667 25.625 24.0625 25.625C22.0417 25.625 20.3542 24.9479 19 23.5938C17.6875 22.3021 17.0312 20.7292 17.0312 18.875C17.0312 16.8333 17.5938 14.9688 18.7188 13.2812C19.6979 11.8021 20.9792 10.625 22.5625 9.75H17.9688L19.0938 7.40625H30.4062ZM32.5 1.78125H35.1562V4.46875C35.8854 3.53125 36.75 2.78125 37.75 2.21875C38.8542 1.61458 39.9792 1.3125 41.125 1.3125C43.1042 1.3125 44.6667 1.85417 45.8125 2.9375C47.1667 4.1875 47.8438 6.10417 47.8438 8.6875C47.8438 11.6042 46.9062 13.7917 45.0312 15.25C43.1354 16.7083 40.3438 17.375 36.6562 17.25L37.3125 14.8438C40.1667 14.8229 42.1875 14.2917 43.375 13.25C44.4583 12.3333 45 10.8646 45 8.84375C45 7.32292 44.6667 6.08333 44 5.125C43.3125 4.14583 42.4271 3.65625 41.3438 3.65625C39.4896 3.65625 37.9688 4.3125 36.7812 5.625C35.6979 6.85417 35.1562 8.26042 35.1562 9.84375V25.125H32.5V1.78125ZM57.375 8.125L56.625 10.5C56.25 10.2917 55.8333 10.125 55.375 10C54.875 9.85417 54.4271 9.78125 54.0312 9.78125C52.6562 9.78125 51.6146 9.95833 50.9062 10.3125C50.0729 10.75 49.6562 11.4479 49.6562 12.4062C49.6562 13.0521 49.9896 13.6146 50.6562 14.0938C51.0729 14.3854 51.8542 14.7708 53 15.25C54.625 15.9167 55.7604 16.5208 56.4062 17.0625C57.5104 17.9792 58.0625 19.1667 58.0625 20.625C58.0625 22.0417 57.3125 23.2292 55.8125 24.1875C54.25 25.2083 52.1771 25.7188 49.5938 25.7188C49.0104 25.7188 48.2917 25.6458 47.4375 25.5C46.6042 25.3542 45.7396 25.1562 44.8438 24.9062L45.6562 22.375C46.1562 22.6042 46.6667 22.8021 47.1875 22.9688C48.0208 23.2188 48.8229 23.3438 49.5938 23.3438C51.3021 23.3438 52.6458 23.1354 53.625 22.7188C54.8125 22.2396 55.4062 21.5 55.4062 20.5C55.4062 19.6667 55.0208 18.9688 54.25 18.4062C53.7708 18.0521 52.8958 17.6146 51.625 17.0938C50.0833 16.4688 49.0208 15.9271 48.4375 15.4688C47.4583 14.6771 46.9688 13.6771 46.9688 12.4688C46.9688 11.0938 47.6354 9.90625 48.9688 8.90625C50.3854 7.86458 52.1458 7.34375 54.25 7.34375C54.8333 7.34375 55.4167 7.40625 56 7.53125C56.6042 7.67708 57.0625 7.875 57.375 8.125ZM58.0625 19.1875H60.9062V25.2188H58.0625V19.1875ZM58.0625 1.21875H60.9062V18.25H58.0625V1.21875ZM63.1875 19.1875H65.9688V25.1562H63.1875V19.1875ZM63.375 2.0625L65.1875 0C67 1.375 68.3958 2.82292 69.375 4.34375C70.2917 5.78125 70.75 7.13542 70.75 8.40625C70.75 9.19792 70.5312 9.94792 70.0938 10.6562C69.8229 11.0729 69.3333 11.6667 68.625 12.4375C67.75 13.375 67.1354 14.1458 66.7812 14.75C66.2188 15.7708 65.9375 16.9271 65.9375 18.2188H63.1875C63.1875 16.6562 63.5 15.2812 64.125 14.0938C64.5 13.3854 65.1458 12.5312 66.0625 11.5312C66.7083 10.8438 67.1458 10.3229 67.375 9.96875C67.75 9.38542 67.9375 8.79167 67.9375 8.1875C67.9375 7.29167 67.5521 6.32292 66.7812 5.28125C65.9896 4.19792 64.8542 3.125 63.375 2.0625Z" fill="url(#paint0_linear_26_274)"/>
<defs>
<linearGradient id="paint0_linear_26_274" x1="-2.375" y1="13.4688" x2="74.625" y2="13.4688" gradientUnits="userSpaceOnUse">
<stop stop-color="#4BB1FD"/>
<stop offset="1" stop-color="#2A86FA"/>
</linearGradient>
</defs>
</svg>
